# xmcd
#
# Track frame offsets:
#	150
#	15850
#	26940
#	39080
#	55857
#	68732
#	81242
#	99807
#	109525
#	122887
#
# Disc length: 1851 seconds
#
# Revision: 0
# Processed by: cddbd v1.4PL0 Copyright (c) Steve Scherf et al.
# Submitted via: EasyCDDAExtractor 4.6.0.1
#
DISCID=6e07390a
DTITLE=Various Artist - Old Fashioned Love Country Style
DYEAR=1994
DGENRE=Country
TTITLE0=Whatever Happened To Old Fashioned Love,B.J. Thomas
TTITLE1=I Love My Friend,Charlie Rich
TTITLE2=Funny Face,Donna Fargo
TTITLE3=You're The Best Thing That Ever Happened To Me,Ray Price
TTITLE4=I'll Go To My Grave Loving You,The Statler Brothers
TTITLE5=Love Put A Song In My Heart,Johnny Rodriguez
TTITLE6=The Sweetest Thing (I've Ever Known),Juice Newton
TTITLE7=I Love,Tom T. Hall
TTITLE8=Could You Love Me (One More Time),John Conlee
TTITLE9=My Woman, My Woman, My Wife,Marty Robbins
EXTD=
EXTT0=
EXTT1=
EXTT2=
EXTT3=
EXTT4=
EXTT5=
EXTT6=
EXTT7=
EXTT8=
EXTT9=
PLAYORDER=
